<?xml version="1.0" encoding="UTF-8" standalone="no"?>
<!-- Created with Inkscape (http://www.inkscape.org/) -->

<svg
   width="89.704704mm"
   height="81.310486mm"
   viewBox="0 0 89.704704 81.310486"
   version="1.1"
   id="svg5"
   inkscape:version="1.1.1 (1:1.1+202109281949+c3084ef5ed)"
   sodipodi:docname="dlogoonly.svg"
   inkscape:export-filename="/home/nize/Pictures/dodonglogo.png"
   inkscape:export-xdpi="190"
   inkscape:export-ydpi="190"
   shape-rendering="crispEdges"
   xmlns:inkscape="http://www.inkscape.org/namespaces/inkscape"
   xmlns:sodipodi="http://sodipodi.sourceforge.net/DTD/sodipodi-0.dtd"
   xmlns="http://www.w3.org/2000/svg"
   xmlns:svg="http://www.w3.org/2000/svg">
  <sodipodi:namedview
     id="namedview7"
     pagecolor="#505050"
     bordercolor="#eeeeee"
     borderopacity="1"
     inkscape:pageshadow="0"
     inkscape:pageopacity="0"
     inkscape:pagecheckerboard="0"
     inkscape:document-units="mm"
     showgrid="false"
     inkscape:zoom="0.70710678"
     inkscape:cx="-26.162951"
     inkscape:cy="284.96403"
     inkscape:window-width="1366"
     inkscape:window-height="703"
     inkscape:window-x="0"
     inkscape:window-y="0"
     inkscape:window-maximized="1"
     inkscape:current-layer="layer1"
     showguides="true"
     inkscape:guide-bbox="true"
     fit-margin-top="0"
     fit-margin-left="0"
     fit-margin-right="0"
     fit-margin-bottom="0" />
  <defs
     id="defs2">
    <rect
       x="39.68504"
       y="285.35434"
       width="789.92126"
       height="553.70081"
       id="rect7057" />
    <rect
       x="-9.4488192"
       y="243.77953"
       width="527.24408"
       height="383.62204"
       id="rect1485" />
    <rect
       x="39.68504"
       y="285.35434"
       width="789.92126"
       height="553.70081"
       id="rect7057-6" />
    <rect
       x="39.68504"
       y="285.35434"
       width="789.92126"
       height="553.70081"
       id="rect7057-5" />
  </defs>
  <g
     inkscape:label="Layer 1"
     inkscape:groupmode="layer"
     id="layer1">
    <g
       transform="matrix(0.26458333,0,0,0.26458333,57.540009,-63.175865)"
       id="text1483"
       style="font-size:40px;line-height:1.25;font-family:Bebas;-inkscape-font-specification:Bebas;white-space:pre;shape-inside:url(#rect1485)" />
    <g
       id="layer1-3"
       transform="matrix(0.51809202,0,0,0.60067812,-54.871838,-179.64999)"
       style="fill:#b84e44;fill-opacity:1;stroke:#b84e44;stroke-opacity:1">
      <path
         id="path2992"
         stroke="#000000"
         stroke-width="1px"
         d="m 130,432.36 h 10 v -91 c 0,-9.4281 11.29,-20.635 20,-24.243 24.637,-10.205 40.363,-10.205 65,0 8.7104,3.608 20,14.815 20,24.243 v 91 h 10 v -91 c 0,-12.018 -9.4036,-24.329 -20,-30 -29.389,-15.729 -55.611,-15.729 -85,0 -10.596,5.671 -20,17.982 -20,30 z"
         style="fill:#b84e44;fill-opacity:1;stroke:#b84e44;stroke-opacity:1" />
    </g>
    <g
       aria-label="D "
       transform="matrix(0.26458333,0,0,0.26458333,58.154319,-45.915335)"
       id="text7055"
       style="font-size:204px;line-height:1.25;white-space:pre;shape-inside:url(#rect7057);fill:#44b868">
      <path
         d="m 51.517547,480.85352 h 33.864 c 20.604003,0 33.864003,-13.464 33.864003,-34.068 v -74.664 c 0,-20.604 -13.26,-34.068 -33.864003,-34.068 h -33.864 z m 21.624,-20.4 v -102 h 11.22 c 8.364,0 13.26,4.896 13.26,13.26 v 75.48 c 0,8.364 -4.896,13.26 -13.26,13.26 z"
         style="font-family:Bebas;-inkscape-font-specification:Bebas"
         id="path1042" />
    </g>
    <g
       aria-label="D "
       transform="matrix(-0.26458333,0,0,0.26458333,31.550385,-45.925915)"
       id="text7055-3"
       style="font-size:204px;line-height:1.25;white-space:pre;shape-inside:url(#rect7057-5);fill:#b84e44">
      <path
         d="m 51.517547,480.85352 h 33.864 c 20.604003,0 33.864003,-13.464 33.864003,-34.068 v -74.664 c 0,-20.604 -13.26,-34.068 -33.864003,-34.068 h -33.864 z m 21.624,-20.4 v -102 h 11.22 c 8.364,0 13.26,4.896 13.26,13.26 v 75.48 c 0,8.364 -4.896,13.26 -13.26,13.26 z"
         style="font-family:Bebas;-inkscape-font-specification:Bebas"
         id="path1039" />
    </g>
    <path
       id="rect177185"
       style="fill:#b84e44;stroke:#b84e44;stroke-width:0.0788218"
       d="m 21.079564,59.735496 h 0.222577 c 0.554,0 1,0.446 1,1 v 3.74795 c 0,0.554 -0.446,1 -1,1 h -0.222577 c -0.554,0 -1,-0.446 -1,-1 v -3.74795 c 0,-0.554 0.446,-1 1,-1 z" />
    <path
       id="rect177662"
       style="fill:#b84e44;stroke:#b84e44;stroke-width:0.0949267"
       d="m 26.371236,58.441146 h 0.222577 c 0.554,0 1,0.446 1,1 v 6.33663 c 0,0.554 -0.446,1 -1,1 h -0.222577 c -0.554,0 -1,-0.446 -1,-1 v -6.33663 c 0,-0.554 0.446,-1 1,-1 z" />
    <path
       id="rect177874"
       style="fill:#b84e44;stroke:#b84e44;stroke-width:0.1077"
       d="m 31.662907,57.243846 h 0.222578 c 0.554,0 1,0.446 1,1 v 8.73124 c 0,0.554 -0.446,1 -1,1 h -0.222578 c -0.554,0 -1,-0.446 -1,-1 v -8.73124 c 0,-0.554 0.446,-1 1,-1 z" />
    <path
       id="rect177876"
       style="fill:#b84e44;stroke:#b84e44;stroke-width:0.125342"
       d="m 36.954579,55.342036 h 0.222577 c 0.554,0 1,0.446 1,1 v 12.53486 c 0,0.554 -0.446,1 -1,1 h -0.222577 c -0.554,0 -1,-0.446 -1,-1 v -12.53486 c 0,-0.554 0.446,-1 1,-1 z" />
    <path
       id="rect177886"
       style="fill:#b84e44;stroke:#b84e44;stroke-width:0.152787"
       d="m 42.246251,51.810796 h 0.222577 c 0.554,0 1,0.446 1,1 v 19.59732 c 0,0.554 -0.446,1 -1,1 h -0.222577 c -0.554,0 -1,-0.446 -1,-1 v -19.59732 c 0,-0.554 0.446,-1 1,-1 z" />
    <path
       id="rect177888"
       style="fill:#44b868;stroke:#44b868;stroke-width:0.165654"
       d="m 47.537919,49.915606 h 0.22258 c 0.554,0 1,0.446 1,1 v 23.38771 c 0,0.554 -0.446,1 -1,1 h -0.22258 c -0.554,0 -1,-0.446 -1,-1 v -23.38771 c 0,-0.554 0.446,-1 1,-1 z" />
    <path
       id="rect177890"
       style="fill:#44b868;stroke:#44b868;stroke-width:0.181964"
       d="m 52.829599,47.292916 h 0.22257 c 0.554,0 1,0.446 1,1 v 28.63309 c 0,0.554 -0.446,1 -1,1 h -0.22257 c -0.554,0 -1,-0.446 -1,-1 v -28.63309 c 0,-0.554 0.446,-1 1,-1 z" />
    <path
       id="rect177892"
       style="fill:#44b868;stroke:#44b868;stroke-width:0.157546"
       d="m 58.121259,51.127816 h 0.22258 c 0.554,0 1,0.446 1,1 v 20.9633 c 0,0.554 -0.446,1 -1,1 h -0.22258 c -0.554,0 -1,-0.446 -1,-1 v -20.9633 c 0,-0.554 0.446,-1 1,-1 z" />
    <path
       id="rect177894"
       style="fill:#44b868;stroke:#44b868;stroke-width:0.130834"
       d="m 63.412939,54.691106 h 0.22257 c 0.554,0 1,0.446 1,1 v 13.83671 c 0,0.554 -0.446,1 -1,1 h -0.22257 c -0.554,0 -1,-0.446 -1,-1 v -13.83671 c 0,-0.554 0.446,-1 1,-1 z" />
    <path
       id="rect177896"
       style="fill:#44b868;stroke:#44b868;stroke-width:0.0879575"
       d="m 68.704609,59.030676 h 0.22257 c 0.554,0 1,0.446 1,1 v 5.15757 c 0,0.554 -0.446,1 -1,1 h -0.22257 c -0.554,0 -1,-0.446 -1,-1 v -5.15757 c 0,-0.554 0.446,-1 1,-1 z" />
  </g>
</svg>
